<svg width="700" height="500" xmlns="http://www.w3.org/2000/svg">
  <defs>
    <linearGradient id="bg" x1="0" y1="0" x2="1" y2="1">
      <stop offset="0%" stop-color="#22345c"/>
      <stop offset="100%" stop-color="#0a1a35"/>
    </linearGradient>
  </defs>
  <rect width="700" height="500" fill="url(#bg)"/>
  <rect x="0" y="0" width="700" height="220" fill="#2a3d63" opacity="0.4"/>
  <g>
    <circle cx="150" cy="205" r="52" fill="#3a2418"/>
    <rect x="108" y="255" width="84" height="150" rx="18" fill="#7a1220"/>
    <circle cx="150" cy="188" r="42" fill="#c98d6f"/>
    <circle cx="275" cy="225" r="56" fill="#2a1810"/>
    <rect x="228" y="278" width="94" height="150" rx="18" fill="#7a1220"/>
    <circle cx="275" cy="206" r="44" fill="#a06b4a"/>
    <circle cx="405" cy="200" r="55" fill="#4a3020"/>
    <rect x="357" y="252" width="96" height="150" rx="18" fill="#7a1220"/>
    <circle cx="405" cy="182" r="44" fill="#c98d6f"/>
    <circle cx="535" cy="222" r="52" fill="#2a1a10"/>
    <rect x="492" y="274" width="90" height="150" rx="18" fill="#7a1220"/>
    <circle cx="535" cy="204" r="42" fill="#8a5a3a"/>
  </g>
  <circle cx="150" cy="312" r="11" fill="#FDB913"/>
  <circle cx="275" cy="335" r="11" fill="#FDB913"/>
  <circle cx="405" cy="310" r="11" fill="#FDB913"/>
  <circle cx="535" cy="332" r="11" fill="#FDB913"/>
  <text x="350" y="475" font-family="Arial" font-size="15" fill="#ffffff" text-anchor="middle" opacity="0.5">Foto da equipe CAFCM (placeholder)</text>
</svg>
